# xmcd
#
# Track frame offsets:
#	150
#	12158
#	26183
#	47245
#	57588
#	69958
#	82100
#	93075
#	108518
#	121440
#	137840
#	148640
#	160318
#	172850
#
# Disc length: 2467
#
# Revision: 1
# Processed by: cddbd v1.5.1PL0 Copyright (c) Steve Scherf et al.
# Submitted via: VisiTrax 2.9.5.180 - For more info visit www.synapsa.com
# Normalized: r0:DSETVAR1
#
DISCID=c009a10e
DTITLE=Various Artist - Mr Music Country 06-91
DYEAR=1991
DGENRE=Country
TTITLE0=Dwight Yoakam - The Dstance Between You And Me
TTITLE1=Brenda Lee - Your One And Only
TTITLE2=Hank Williams Jr with Jimmy C Newman - Big Mamou
TTITLE3=The Forester Sisters - Just In Case
TTITLE4=Gene Watson - You Can't Take it With You When You Go
TTITLE5=Donna Ulisse - Things Mostly Are Fine
TTITLE6=Texas Tornados - Who Were You Thinkin' Of
TTITLE7=Emmylou Harris - Rollin' And Ramblin' (the Death Of Hank Williams)
TTITLE8=Dean Dillon - Don't You Even (Think About Leaving)
TTITLE9=Jennifer McCarter and The McCarters - Papa Sita
TTITLE10=Neal McCoy - This Time I Hurt Her More
TTITLE11=Carlene Carter - You Are The One
TTITLE12=Randy Travis - Heroes And Freinds
TTITLE13=The Girls Next Door - Wasn't it You
EXTD=
EXTT0=
EXTT1=
EXTT2=
EXTT3=
EXTT4=
EXTT5=
EXTT6=
EXTT7=
EXTT8=
EXTT9=
EXTT10=
EXTT11=
EXTT12=
EXTT13=
PLAYORDER=
